<svg xmlns="http://www.w3.org/2000/svg" xml:space="preserve" viewBox="0 0 512 512"><path d="M256 0C114.6 0 0 114.6 0 256c0 96.3 53.2 180.2 131.8 223.9 48.9-15.9 95.4-36.3 105.7-58.9 6.8-14.9-4.2-30-14-43.5-6.5-8.9-12.5-17.1-12.5-24 0-30.3 76.1-41.7 87.9-43.3H239c-.3.1-.6.1-.9.1H99.9c-3.8 0-6.1-4.1-4.2-7.4l69-119.6c1.9-3.3 6.6-3.3 8.5 0l38.3 66.4 54.7-94.7c2.3-4 8.1-4 10.4 0l49.8 86.3 21.8-35.3c1.7-2.7 5.8-2.7 7.5 0l60.7 98.2c1.7 2.7-.4 6-3.7 6H330c-11 1.6-81.2 12.9-77.5 43.3 1.3 11.1 10.2 19.9 20.3 30 10.2 10.1 21.6 21.5 27.7 37.5 14.8 38.7-11.2 79.6-18.3 89.7C411.3 497.6 512 388.5 512 256 512 114.6 397.4 0 256 0M95.5 412.4l5.6-4.6H100c-3.6 0-5.4-4.4-2.8-6.9l5.3-5c-2.4-.9-3.5-4.1-1.7-6.3l16.1-19.2c1.6-1.9 4.5-1.9 6.1 0l16 19.2c1.9 2.2.8 5.4-1.7 6.4l5.2 4.9c2.6 2.5.9 6.9-2.8 6.9h-.9l5.6 4.6c2.9 2.4 1.2 7.1-2.5 7.1h-16.1c.3.5.5 1.1.5 1.7v4.6c0 1.7-1.3 3-3 3h-6.7c-1.7 0-3-1.3-3-3v-4.6c0-.6.2-1.2.5-1.7H98c-3.8 0-5.4-4.7-2.5-7.1m54.7-273.1H96c0-12.6 11-22.9 25-23.8 2.8-5.7 7.7-9.5 13.3-9.5s10.4 3.8 13.3 9.4h.8c8.6 0 15.6 10.7 15.6 23.9zM272 96h-44c0-6 4-11.3 10.1-14.3C239 71.2 246.2 63 255 63c4.9 0 9.2 2.5 12.3 6.6 2.6-1.7 5.6-2.6 8.7-2.6 11.6 0 21 13 21 29zm115 63h-44c0-8.4 5.2-15.7 12.8-19 3.5-7.6 11.7-13 21.2-13 9.2 0 17.2 4.9 20.8 12.1 8 .9 14.2 9.5 14.2 19.9zm-11.1 236.5h-16.1c.3.5.5 1.1.5 1.7v4.6c0 1.7-1.3 3-3 3h-6.7c-1.7 0-3-1.3-3-3v-4.6c0-.6.2-1.2.5-1.7H332c-3.8 0-5.4-4.7-2.5-7.1l5.6-4.6H334c-3.6 0-5.4-4.4-2.8-6.9l5.3-5c-2.4-.9-3.5-4.1-1.7-6.3l16.1-19.2c1.6-1.9 4.5-1.9 6.1 0l16 19.2c1.9 2.2.8 5.4-1.7 6.4l5.2 4.9c2.6 2.5.9 6.9-2.8 6.9h-.9l5.6 4.6c2.9 2.4 1.2 7.1-2.5 7.1" style="fill-rule:evenodd;clip-rule:evenodd"/></svg>